<mxfile host="app.diagrams.net" modified="2020-12-17T07:24:56.830Z" agent="5.0 (Windows NT 10.0; Win64; x64) AppleWebKit/537.36 (KHTML, like Gecko) Chrome/87.0.4280.88 Safari/537.36" etag="RpK40kuFhqXkG8yB8Cp8" version="13.10.9" type="github">
  <diagram id="C5RBs43oDa-KdzZeNtuy" name="Page-1">
    <mxGraphModel dx="1422" dy="762" grid="1" gridSize="10" guides="1" tooltips="1" connect="1" arrows="1" fold="1" page="1" pageScale="1" pageWidth="827" pageHeight="1169" math="0" shadow="0">
      <root>
        <mxCell id="WIyWlLk6GJQsqaUBKTNV-0" />
        <mxCell id="WIyWlLk6GJQsqaUBKTNV-1" parent="WIyWlLk6GJQsqaUBKTNV-0" />
        <mxCell id="Jzube_1W1nCjfKLt7A51-0" value="视频平台引流用户" style="rounded=0;whiteSpace=wrap;html=1;" vertex="1" parent="WIyWlLk6GJQsqaUBKTNV-1">
          <mxGeometry x="200" y="80" width="120" height="60" as="geometry" />
        </mxCell>
        <mxCell id="Jzube_1W1nCjfKLt7A51-1" value="" style="endArrow=classic;html=1;" edge="1" parent="WIyWlLk6GJQsqaUBKTNV-1">
          <mxGeometry width="50" height="50" relative="1" as="geometry">
            <mxPoint x="259.5" y="150" as="sourcePoint" />
            <mxPoint x="260" y="240" as="targetPoint" />
          </mxGeometry>
        </mxCell>
        <mxCell id="Jzube_1W1nCjfKLt7A51-3" value="系统班讲义&lt;br&gt;历年真题" style="edgeLabel;html=1;align=center;verticalAlign=middle;resizable=0;points=[];" vertex="1" connectable="0" parent="Jzube_1W1nCjfKLt7A51-1">
          <mxGeometry x="-0.2668" y="-1" relative="1" as="geometry">
            <mxPoint x="51.32" y="6.99" as="offset" />
          </mxGeometry>
        </mxCell>
        <mxCell id="Jzube_1W1nCjfKLt7A51-2" value="微信小助手" style="rounded=0;whiteSpace=wrap;html=1;" vertex="1" parent="WIyWlLk6GJQsqaUBKTNV-1">
          <mxGeometry x="200" y="250" width="120" height="60" as="geometry" />
        </mxCell>
        <mxCell id="Jzube_1W1nCjfKLt7A51-4" value="" style="endArrow=classic;html=1;" edge="1" parent="WIyWlLk6GJQsqaUBKTNV-1">
          <mxGeometry width="50" height="50" relative="1" as="geometry">
            <mxPoint x="270" y="330" as="sourcePoint" />
            <mxPoint x="270.5" y="420" as="targetPoint" />
          </mxGeometry>
        </mxCell>
        <mxCell id="Jzube_1W1nCjfKLt7A51-5" value="萌新备考指导" style="edgeLabel;html=1;align=center;verticalAlign=middle;resizable=0;points=[];" vertex="1" connectable="0" parent="Jzube_1W1nCjfKLt7A51-4">
          <mxGeometry x="-0.2668" y="-1" relative="1" as="geometry">
            <mxPoint x="50.82" y="6.99" as="offset" />
          </mxGeometry>
        </mxCell>
        <mxCell id="Jzube_1W1nCjfKLt7A51-6" value="公众号" style="rounded=0;whiteSpace=wrap;html=1;" vertex="1" parent="WIyWlLk6GJQsqaUBKTNV-1">
          <mxGeometry x="200" y="430" width="120" height="60" as="geometry" />
        </mxCell>
        <mxCell id="Jzube_1W1nCjfKLt7A51-7" value="" style="endArrow=classic;html=1;" edge="1" parent="WIyWlLk6GJQsqaUBKTNV-1">
          <mxGeometry width="50" height="50" relative="1" as="geometry">
            <mxPoint x="250" y="420" as="sourcePoint" />
            <mxPoint x="250" y="330" as="targetPoint" />
          </mxGeometry>
        </mxCell>
        <mxCell id="Jzube_1W1nCjfKLt7A51-8" value="进备考群交流学习&lt;br&gt;系统班讲义&lt;br&gt;历年真题&lt;br&gt;专项题&lt;br&gt;" style="edgeLabel;html=1;align=center;verticalAlign=middle;resizable=0;points=[];" vertex="1" connectable="0" parent="Jzube_1W1nCjfKLt7A51-7">
          <mxGeometry x="-0.2668" y="-1" relative="1" as="geometry">
            <mxPoint x="-60.99999999999999" y="-17" as="offset" />
          </mxGeometry>
        </mxCell>
        <mxCell id="Jzube_1W1nCjfKLt7A51-9" value="APP" style="rounded=0;whiteSpace=wrap;html=1;" vertex="1" parent="WIyWlLk6GJQsqaUBKTNV-1">
          <mxGeometry x="530" y="250" width="120" height="60" as="geometry" />
        </mxCell>
        <mxCell id="Jzube_1W1nCjfKLt7A51-10" value="" style="endArrow=classic;html=1;" edge="1" parent="WIyWlLk6GJQsqaUBKTNV-1">
          <mxGeometry width="50" height="50" relative="1" as="geometry">
            <mxPoint x="350" y="279.5" as="sourcePoint" />
            <mxPoint x="500" y="279.5" as="targetPoint" />
          </mxGeometry>
        </mxCell>
        <mxCell id="Jzube_1W1nCjfKLt7A51-11" value="30到易错题小课" style="edgeLabel;html=1;align=center;verticalAlign=middle;resizable=0;points=[];" vertex="1" connectable="0" parent="Jzube_1W1nCjfKLt7A51-10">
          <mxGeometry x="-0.2668" y="-1" relative="1" as="geometry">
            <mxPoint x="15" y="-20.5" as="offset" />
          </mxGeometry>
        </mxCell>
        <mxCell id="Jzube_1W1nCjfKLt7A51-16" value="" style="endArrow=classic;html=1;" edge="1" parent="WIyWlLk6GJQsqaUBKTNV-1">
          <mxGeometry width="50" height="50" relative="1" as="geometry">
            <mxPoint x="350" y="450" as="sourcePoint" />
            <mxPoint x="560" y="340" as="targetPoint" />
          </mxGeometry>
        </mxCell>
        <mxCell id="Jzube_1W1nCjfKLt7A51-17" value="系统课&lt;br&gt;系统课讲义&lt;br&gt;历年真题&lt;br&gt;专项题" style="edgeLabel;html=1;align=center;verticalAlign=middle;resizable=0;points=[];" vertex="1" connectable="0" parent="Jzube_1W1nCjfKLt7A51-16">
          <mxGeometry x="-0.2668" y="-1" relative="1" as="geometry">
            <mxPoint x="62.47" y="19.48" as="offset" />
          </mxGeometry>
        </mxCell>
        <mxCell id="Jzube_1W1nCjfKLt7A51-18" value="公众号" style="rounded=0;whiteSpace=wrap;html=1;" vertex="1" parent="WIyWlLk6GJQsqaUBKTNV-1">
          <mxGeometry x="10" y="860" width="120" height="60" as="geometry" />
        </mxCell>
        <mxCell id="Jzube_1W1nCjfKLt7A51-19" value="" style="strokeWidth=2;html=1;shape=mxgraph.flowchart.annotation_2;align=left;labelPosition=right;pointerEvents=1;" vertex="1" parent="WIyWlLk6GJQsqaUBKTNV-1">
          <mxGeometry x="160" y="650" width="50" height="400" as="geometry" />
        </mxCell>
        <mxCell id="Jzube_1W1nCjfKLt7A51-25" value="证券" style="text;html=1;align=center;verticalAlign=middle;resizable=0;points=[];autosize=1;fontSize=27;" vertex="1" parent="WIyWlLk6GJQsqaUBKTNV-1">
          <mxGeometry x="230" y="637.5" width="70" height="40" as="geometry" />
        </mxCell>
        <mxCell id="Jzube_1W1nCjfKLt7A51-26" value="&lt;font style=&quot;font-size: 15px&quot;&gt;1.进群&lt;/font&gt;" style="text;html=1;align=center;verticalAlign=middle;resizable=0;points=[];autosize=1;fontSize=27;" vertex="1" parent="WIyWlLk6GJQsqaUBKTNV-1">
          <mxGeometry x="380" y="520" width="60" height="40" as="geometry" />
        </mxCell>
        <mxCell id="Jzube_1W1nCjfKLt7A51-27" value="&lt;font style=&quot;font-size: 15px&quot;&gt;2.报名通知，全年计划&lt;/font&gt;" style="text;html=1;align=center;verticalAlign=middle;resizable=0;points=[];autosize=1;fontSize=27;" vertex="1" parent="WIyWlLk6GJQsqaUBKTNV-1">
          <mxGeometry x="384" y="565" width="160" height="40" as="geometry" />
        </mxCell>
        <mxCell id="Jzube_1W1nCjfKLt7A51-28" value="&lt;span style=&quot;text-align: center&quot;&gt;&lt;font style=&quot;font-size: 15px&quot;&gt;3.领取系统课+理念真题+讲义+专项题&lt;/font&gt;&lt;/span&gt;" style="text;whiteSpace=wrap;html=1;fontSize=27;" vertex="1" parent="WIyWlLk6GJQsqaUBKTNV-1">
          <mxGeometry x="390" y="605" width="280" height="50" as="geometry" />
        </mxCell>
        <mxCell id="Jzube_1W1nCjfKLt7A51-29" value="&lt;span style=&quot;text-align: center&quot;&gt;&lt;font style=&quot;font-size: 15px&quot;&gt;4.证券每日一记集和&lt;/font&gt;&lt;/span&gt;" style="text;whiteSpace=wrap;html=1;fontSize=27;" vertex="1" parent="WIyWlLk6GJQsqaUBKTNV-1">
          <mxGeometry x="390" y="640" width="280" height="50" as="geometry" />
        </mxCell>
        <mxCell id="Jzube_1W1nCjfKLt7A51-30" value="&lt;span style=&quot;text-align: center&quot;&gt;&lt;font style=&quot;font-size: 15px&quot;&gt;5.证券小课活动集合&lt;/font&gt;&lt;/span&gt;" style="text;whiteSpace=wrap;html=1;fontSize=27;" vertex="1" parent="WIyWlLk6GJQsqaUBKTNV-1">
          <mxGeometry x="390" y="680" width="280" height="50" as="geometry" />
        </mxCell>
        <mxCell id="Jzube_1W1nCjfKLt7A51-31" value="&lt;span style=&quot;text-align: center&quot;&gt;&lt;font style=&quot;font-size: 15px&quot;&gt;6.模考小程序&lt;br&gt;&lt;/font&gt;&lt;/span&gt;" style="text;whiteSpace=wrap;html=1;fontSize=27;" vertex="1" parent="WIyWlLk6GJQsqaUBKTNV-1">
          <mxGeometry x="390" y="710" width="280" height="50" as="geometry" />
        </mxCell>
        <mxCell id="Jzube_1W1nCjfKLt7A51-32" value="&lt;span style=&quot;text-align: center&quot;&gt;&lt;font style=&quot;font-size: 15px&quot;&gt;7.公开课小程序&lt;br&gt;&lt;/font&gt;&lt;/span&gt;" style="text;whiteSpace=wrap;html=1;fontSize=27;" vertex="1" parent="WIyWlLk6GJQsqaUBKTNV-1">
          <mxGeometry x="390" y="740" width="280" height="50" as="geometry" />
        </mxCell>
        <mxCell id="Jzube_1W1nCjfKLt7A51-33" value="" style="strokeWidth=2;html=1;shape=mxgraph.flowchart.annotation_2;align=left;labelPosition=right;pointerEvents=1;" vertex="1" parent="WIyWlLk6GJQsqaUBKTNV-1">
          <mxGeometry x="320" y="545" width="50" height="225" as="geometry" />
        </mxCell>
        <mxCell id="Jzube_1W1nCjfKLt7A51-34" value="&lt;font style=&quot;font-size: 15px&quot;&gt;2.报名通知，全年计划&lt;/font&gt;" style="text;html=1;align=center;verticalAlign=middle;resizable=0;points=[];autosize=1;fontSize=27;" vertex="1" parent="WIyWlLk6GJQsqaUBKTNV-1">
          <mxGeometry x="384" y="565" width="160" height="40" as="geometry" />
        </mxCell>
        <mxCell id="Jzube_1W1nCjfKLt7A51-35" value="&lt;span style=&quot;text-align: center&quot;&gt;&lt;font style=&quot;font-size: 15px&quot;&gt;3.领取系统课+理念真题+讲义+专项题&lt;/font&gt;&lt;/span&gt;" style="text;whiteSpace=wrap;html=1;fontSize=27;" vertex="1" parent="WIyWlLk6GJQsqaUBKTNV-1">
          <mxGeometry x="390" y="605" width="280" height="50" as="geometry" />
        </mxCell>
        <mxCell id="Jzube_1W1nCjfKLt7A51-36" value="&lt;span style=&quot;text-align: center&quot;&gt;&lt;font style=&quot;font-size: 15px&quot;&gt;4.证券每日一记集和&lt;/font&gt;&lt;/span&gt;" style="text;whiteSpace=wrap;html=1;fontSize=27;" vertex="1" parent="WIyWlLk6GJQsqaUBKTNV-1">
          <mxGeometry x="390" y="640" width="280" height="50" as="geometry" />
        </mxCell>
        <mxCell id="Jzube_1W1nCjfKLt7A51-37" value="&lt;span style=&quot;text-align: center&quot;&gt;&lt;font style=&quot;font-size: 15px&quot;&gt;5.证券小课活动集合&lt;/font&gt;&lt;/span&gt;" style="text;whiteSpace=wrap;html=1;fontSize=27;" vertex="1" parent="WIyWlLk6GJQsqaUBKTNV-1">
          <mxGeometry x="390" y="680" width="280" height="50" as="geometry" />
        </mxCell>
        <mxCell id="Jzube_1W1nCjfKLt7A51-38" value="&lt;span style=&quot;text-align: center&quot;&gt;&lt;font style=&quot;font-size: 15px&quot;&gt;6.模考小程序&lt;br&gt;&lt;/font&gt;&lt;/span&gt;" style="text;whiteSpace=wrap;html=1;fontSize=27;" vertex="1" parent="WIyWlLk6GJQsqaUBKTNV-1">
          <mxGeometry x="390" y="710" width="280" height="50" as="geometry" />
        </mxCell>
        <mxCell id="Jzube_1W1nCjfKLt7A51-39" value="&lt;span style=&quot;text-align: center&quot;&gt;&lt;font style=&quot;font-size: 15px&quot;&gt;7.公开课小程序&lt;br&gt;&lt;/font&gt;&lt;/span&gt;" style="text;whiteSpace=wrap;html=1;fontSize=27;" vertex="1" parent="WIyWlLk6GJQsqaUBKTNV-1">
          <mxGeometry x="390" y="740" width="280" height="50" as="geometry" />
        </mxCell>
        <mxCell id="Jzube_1W1nCjfKLt7A51-40" value="&lt;font style=&quot;font-size: 15px&quot;&gt;1.进群&lt;/font&gt;" style="text;html=1;align=center;verticalAlign=middle;resizable=0;points=[];autosize=1;fontSize=27;" vertex="1" parent="WIyWlLk6GJQsqaUBKTNV-1">
          <mxGeometry x="380" y="790" width="60" height="40" as="geometry" />
        </mxCell>
        <mxCell id="Jzube_1W1nCjfKLt7A51-41" value="" style="strokeWidth=2;html=1;shape=mxgraph.flowchart.annotation_2;align=left;labelPosition=right;pointerEvents=1;" vertex="1" parent="WIyWlLk6GJQsqaUBKTNV-1">
          <mxGeometry x="320" y="815" width="50" height="145" as="geometry" />
        </mxCell>
        <mxCell id="Jzube_1W1nCjfKLt7A51-42" value="&lt;span style=&quot;text-align: center&quot;&gt;&lt;font style=&quot;font-size: 15px&quot;&gt;3.领取系统课+理念真题+讲义+专项题&lt;/font&gt;&lt;/span&gt;" style="text;whiteSpace=wrap;html=1;fontSize=27;" vertex="1" parent="WIyWlLk6GJQsqaUBKTNV-1">
          <mxGeometry x="390" y="865" width="280" height="50" as="geometry" />
        </mxCell>
        <mxCell id="Jzube_1W1nCjfKLt7A51-43" value="&lt;span style=&quot;text-align: center&quot;&gt;&lt;font style=&quot;font-size: 15px&quot;&gt;4.基金每日一记集和&lt;/font&gt;&lt;/span&gt;" style="text;whiteSpace=wrap;html=1;fontSize=27;" vertex="1" parent="WIyWlLk6GJQsqaUBKTNV-1">
          <mxGeometry x="390" y="900" width="280" height="50" as="geometry" />
        </mxCell>
        <mxCell id="Jzube_1W1nCjfKLt7A51-44" value="&lt;span style=&quot;text-align: center&quot;&gt;&lt;font style=&quot;font-size: 15px&quot;&gt;5.基金小课活动集合&lt;/font&gt;&lt;/span&gt;" style="text;whiteSpace=wrap;html=1;fontSize=27;" vertex="1" parent="WIyWlLk6GJQsqaUBKTNV-1">
          <mxGeometry x="390" y="930" width="280" height="50" as="geometry" />
        </mxCell>
        <mxCell id="Jzube_1W1nCjfKLt7A51-47" value="基金" style="text;html=1;align=center;verticalAlign=middle;resizable=0;points=[];autosize=1;fontSize=27;" vertex="1" parent="WIyWlLk6GJQsqaUBKTNV-1">
          <mxGeometry x="230" y="875" width="70" height="40" as="geometry" />
        </mxCell>
        <mxCell id="Jzube_1W1nCjfKLt7A51-48" value="&lt;font style=&quot;font-size: 15px&quot;&gt;2.报名通知，全年计划&lt;/font&gt;" style="text;html=1;align=center;verticalAlign=middle;resizable=0;points=[];autosize=1;fontSize=27;" vertex="1" parent="WIyWlLk6GJQsqaUBKTNV-1">
          <mxGeometry x="384" y="830" width="160" height="40" as="geometry" />
        </mxCell>
        <mxCell id="Jzube_1W1nCjfKLt7A51-49" value="初会" style="text;html=1;align=center;verticalAlign=middle;resizable=0;points=[];autosize=1;fontSize=27;" vertex="1" parent="WIyWlLk6GJQsqaUBKTNV-1">
          <mxGeometry x="240" y="1032.5" width="70" height="40" as="geometry" />
        </mxCell>
        <mxCell id="Jzube_1W1nCjfKLt7A51-50" value="&lt;font style=&quot;font-size: 15px&quot;&gt;1.进群&lt;/font&gt;" style="text;html=1;align=center;verticalAlign=middle;resizable=0;points=[];autosize=1;fontSize=27;" vertex="1" parent="WIyWlLk6GJQsqaUBKTNV-1">
          <mxGeometry x="380" y="971.5" width="60" height="40" as="geometry" />
        </mxCell>
        <mxCell id="Jzube_1W1nCjfKLt7A51-51" value="" style="strokeWidth=2;html=1;shape=mxgraph.flowchart.annotation_2;align=left;labelPosition=right;pointerEvents=1;" vertex="1" parent="WIyWlLk6GJQsqaUBKTNV-1">
          <mxGeometry x="320" y="994" width="50" height="136" as="geometry" />
        </mxCell>
        <mxCell id="Jzube_1W1nCjfKLt7A51-52" value="&lt;font style=&quot;font-size: 15px&quot;&gt;2.报名通知（官方链接）&lt;/font&gt;" style="text;html=1;align=center;verticalAlign=middle;resizable=0;points=[];autosize=1;fontSize=27;" vertex="1" parent="WIyWlLk6GJQsqaUBKTNV-1">
          <mxGeometry x="380" y="1011.5" width="180" height="40" as="geometry" />
        </mxCell>
        <mxCell id="Jzube_1W1nCjfKLt7A51-54" value="&lt;span style=&quot;text-align: center&quot;&gt;&lt;font style=&quot;font-size: 15px&quot;&gt;3.领取系统课+理念真题+讲义+专项题&lt;/font&gt;&lt;/span&gt;" style="text;whiteSpace=wrap;html=1;fontSize=27;" vertex="1" parent="WIyWlLk6GJQsqaUBKTNV-1">
          <mxGeometry x="388" y="1042.5" width="280" height="50" as="geometry" />
        </mxCell>
        <mxCell id="Jzube_1W1nCjfKLt7A51-55" value="&lt;span style=&quot;text-align: center&quot;&gt;&lt;font style=&quot;font-size: 15px&quot;&gt;4.初会11个必考点&lt;/font&gt;&lt;/span&gt;" style="text;whiteSpace=wrap;html=1;fontSize=27;" vertex="1" parent="WIyWlLk6GJQsqaUBKTNV-1">
          <mxGeometry x="390" y="1072.5" width="280" height="50" as="geometry" />
        </mxCell>
        <mxCell id="Jzube_1W1nCjfKLt7A51-56" value="&lt;div style=&quot;text-align: center&quot;&gt;&lt;span style=&quot;font-size: 15px&quot;&gt;5.初会每日集合&lt;/span&gt;&lt;/div&gt;" style="text;whiteSpace=wrap;html=1;fontSize=27;" vertex="1" parent="WIyWlLk6GJQsqaUBKTNV-1">
          <mxGeometry x="390" y="1102.5" width="280" height="50" as="geometry" />
        </mxCell>
      </root>
    </mxGraphModel>
  </diagram>
</mxfile>
